<svg width="26" height="26" viewBox="0 0 26 26" fill="none" xmlns="http://www.w3.org/2000/svg">
    <g clip-path="url(#clip0_163_42)">
        <path
            d="M9.05735 0.855137C6.45954 1.75634 4.2192 3.46685 2.66539 5.73542C1.11158 8.00399 0.326205 10.7111 0.424621 13.459C0.523037 16.2069 1.50006 18.8508 3.21218 21.0024C4.92429 23.154 7.28126 24.6999 9.93688 25.413C12.0898 25.9685 14.3455 25.9929 16.51 25.484C18.4708 25.0436 20.2836 24.1015 21.7709 22.75C23.3189 21.3004 24.4425 19.4563 25.0209 17.4159C25.6497 15.1971 25.7615 12.8638 25.348 10.595H13.258V15.6101H20.2597C20.1198 16.41 19.8199 17.1734 19.378 17.8547C18.9362 18.536 18.3614 19.1212 17.6881 19.5751C16.8331 20.1407 15.8693 20.5212 14.8586 20.6923C13.8449 20.8808 12.8051 20.8808 11.7914 20.6923C10.764 20.4799 9.79205 20.0558 8.9375 19.4472C7.56468 18.4754 6.53388 17.0948 5.99219 15.5025C5.44135 13.8803 5.44135 12.1217 5.99219 10.4995C6.37778 9.36245 7.0152 8.32716 7.85688 7.47092C8.82008 6.47306 10.0395 5.75979 11.3814 5.40935C12.7233 5.05892 14.1358 5.08487 15.4639 5.48436C16.5014 5.80284 17.4502 6.35929 18.2345 7.10936C19.024 6.32394 19.8121 5.53649 20.5989 4.74701C21.0052 4.32248 21.448 3.91826 21.8481 3.48357C20.6508 2.36939 19.2455 1.50241 17.7125 0.932325C14.921 -0.0812897 11.8665 -0.10853 9.05735 0.855137Z"
            fill="white" />
        <path
            d="M9.05739 0.855148C11.8663 -0.109174 14.9208 -0.0826512 17.7125 0.930304C19.2458 1.50426 20.6505 2.37541 21.8461 3.49374C21.4399 3.92843 21.0113 4.33468 20.5969 4.75718C19.8088 5.54395 19.0213 6.32801 18.2346 7.10937C17.4502 6.3593 16.5014 5.80285 15.4639 5.48437C14.1363 5.08348 12.7238 5.05603 11.3816 5.40503C10.0393 5.75403 8.81915 6.46599 7.85489 7.4628C7.01321 8.31905 6.37578 9.35434 5.9902 10.4914L1.77942 7.23124C3.28662 4.24238 5.89625 1.95613 9.05739 0.855148Z"
            fill="#E33629" />
        <path
            d="M0.662148 10.4609C0.888472 9.33922 1.26422 8.25297 1.77934 7.2312L5.99012 10.4995C5.43927 12.1217 5.43927 13.8803 5.99012 15.5025C4.5872 16.5858 3.18361 17.6745 1.77934 18.7687C0.489797 16.2018 0.0965107 13.2772 0.662148 10.4609Z"
            fill="#F8BD00" />
        <path
            d="M13.258 10.593H25.348C25.7615 12.8618 25.6497 15.1952 25.021 17.414C24.4425 19.4543 23.3189 21.2984 21.771 22.748C20.412 21.6877 19.047 20.6355 17.6881 19.5752C18.3619 19.1208 18.9369 18.535 19.3788 17.853C19.8206 17.171 20.1203 16.4067 20.2597 15.6061H13.258C13.256 13.9365 13.258 12.2647 13.258 10.593Z"
            fill="#587DBD" />
        <path
            d="M1.77734 18.7687C3.18161 17.6854 4.58521 16.5966 5.98812 15.5024C6.53089 17.0953 7.56317 18.476 8.9375 19.4471C9.7947 20.053 10.7687 20.4736 11.7975 20.6821C12.8112 20.8706 13.851 20.8706 14.8647 20.6821C15.8754 20.511 16.8392 20.1305 17.6942 19.5649C19.0531 20.6253 20.4181 21.6774 21.777 22.7378C20.2899 24.09 18.4771 25.0328 16.5161 25.4738C14.3516 25.9827 12.0959 25.9583 9.94297 25.4028C8.24018 24.9481 6.64965 24.1466 5.27109 23.0485C3.81197 21.8901 2.62022 20.4302 1.77734 18.7687Z"
            fill="#319F43" />
    </g>
    <defs>
        <clipPath id="clip0_163_42">
            <rect width="26" height="26" fill="white" />
        </clipPath>
    </defs>
</svg>